HIERARCHY
ROOT hip
{
  OFFSET 0 0 0
  CHANNELS 6 Xposition Yposition Zposition Zrotation Yrotation Xrotation
  JOINT abdomen
  {
    OFFSET 0 20.6881 -0.73152
    CHANNELS 3 Zrotation Xrotation Yrotation
    JOINT chest
    {
      OFFSET 0 11.7043 -0.48768
      CHANNELS 3 Zrotation Xrotation Yrotation
      JOINT neck
      {
        OFFSET 0 22.1894 -2.19456
        CHANNELS 3 Zrotation Xrotation Yrotation
        JOINT head
        {
          OFFSET -0.24384 7.07133 1.2192
          CHANNELS 3 Zrotation Xrotation Yrotation
          JOINT leftEye
          {
            OFFSET 4.14528 8.04674 8.04672
            CHANNELS 3 Zrotation Xrotation Yrotation
            End Site
            {
              OFFSET 1 0 0
            }
          }
          JOINT rightEye
          {
            OFFSET -3.6576 8.04674 8.04672
            CHANNELS 3 Zrotation Xrotation Yrotation
            End Site
            {
              OFFSET 1 0 0
            }
          }
        }
      }
      JOINT rCollar
      {
        OFFSET -2.68224 19.2634 -4.8768
        CHANNELS 3 Zrotation Xrotation Yrotation
        JOINT rShldr
        {
          OFFSET -8.77824 -1.95073 1.46304
          CHANNELS 3 Zrotation Xrotation Yrotation
          JOINT rForeArm
          {
            OFFSET -28.1742 -1.7115 0.48768
            CHANNELS 3 Zrotation Xrotation Yrotation
            JOINT rHand
            {
              OFFSET -22.5879 0.773209 7.07136
              CHANNELS 3 Zrotation Xrotation Yrotation
              JOINT rThumb1
              {
                OFFSET -1.2192 -0.487915 3.41376
                CHANNELS 3 Zrotation Xrotation Yrotation
                JOINT rThumb2
                {
                  OFFSET -3.37035 -0.52449 3.41376
                  CHANNELS 3 Zrotation Xrotation Yrotation
                  End Site
                  {
                    OFFSET -1.78271 -1.18214 1.43049
                  }
                }
              }
              JOINT rIndex1
              {
                OFFSET -7.75947 0.938293 5.60832
                CHANNELS 3 Zrotation Xrotation Yrotation
                JOINT rIndex2
                {
                  OFFSET -2.54057 -0.884171 1.56538
                  CHANNELS 3 Zrotation Xrotation Yrotation
                  End Site
                  {
                    OFFSET -1.62519 -0.234802 1.16502
                  }
                }
              }
              JOINT rMid1
              {
                OFFSET -8.24714 1.18213 3.41376
                CHANNELS 3 Zrotation Xrotation Yrotation
                JOINT rMid2
                {
                  OFFSET -3.10165 -0.590103 1.0647
                  CHANNELS 3 Zrotation Xrotation Yrotation
                  End Site
                  {
                    OFFSET -2.48547 -0.328903 0.83742
                  }
                }
              }
              JOINT rRing1
              {
                OFFSET -8.82822 0.546677 1.51678
                CHANNELS 3 Zrotation Xrotation Yrotation
                JOINT rRing2
                {
                  OFFSET -2.60934 -0.819778 -0.0198488
                  CHANNELS 3 Zrotation Xrotation Yrotation
                  End Site
                  {
                    OFFSET -2.33842 -0.294052 0.168128
                  }
                }
              }
              JOINT rPinky1
              {
                OFFSET -8.27202 -0.0477905 -0.4584
                CHANNELS 3 Zrotation Xrotation Yrotation
                JOINT rPinky2
                {
                  OFFSET -1.82734 -0.647385 -0.700984
                  CHANNELS 3 Zrotation Xrotation Yrotation
                  End Site
                  {
                    OFFSET -1.69225 -0.51767 -0.607171
                  }
                }
              }
            }
          }
        }
      }
      JOINT lCollar
      {
        OFFSET 2.68224 19.2634 -4.8768
        CHANNELS 3 Zrotation Xrotation Yrotation
        JOINT lShldr
        {
          OFFSET 8.77824 -1.95073 1.46304
          CHANNELS 3 Zrotation Xrotation Yrotation
          JOINT lForeArm
          {
            OFFSET 28.1742 -1.7115 0.48768
            CHANNELS 3 Zrotation Xrotation Yrotation
            JOINT lHand
            {
              OFFSET 22.5879 0.773209 7.07136
              CHANNELS 3 Zrotation Xrotation Yrotation
              JOINT lThumb1
              {
                OFFSET 1.2192 -0.487915 3.41376
                CHANNELS 3 Zrotation Xrotation Yrotation
                JOINT lThumb2
                {
                  OFFSET 3.37035 -0.52449 3.41376
                  CHANNELS 3 Zrotation Xrotation Yrotation
                  End Site
                  {
                    OFFSET 1.78271 -1.18214 1.43049
                  }
                }
              }
              JOINT lIndex1
              {
                OFFSET 7.75947 0.938293 5.60832
                CHANNELS 3 Zrotation Xrotation Yrotation
                JOINT lIndex2
                {
                  OFFSET 2.54057 -0.884171 1.56538
                  CHANNELS 3 Zrotation Xrotation Yrotation
                  End Site
                  {
                    OFFSET 1.62519 -0.234802 1.16502
                  }
                }
              }
              JOINT lMid1
              {
                OFFSET 8.24714 1.18213 3.41376
                CHANNELS 3 Zrotation Xrotation Yrotation
                JOINT lMid2
                {
                  OFFSET 3.10165 -0.590103 1.0647
                  CHANNELS 3 Zrotation Xrotation Yrotation
                  End Site
                  {
                    OFFSET 2.48547 -0.328903 0.83742
                  }
                }
              }
              JOINT lRing1
              {
                OFFSET 8.82822 0.546677 1.51678
                CHANNELS 3 Zrotation Xrotation Yrotation
                JOINT lRing2
                {
                  OFFSET 2.60934 -0.819778 -0.0198488
                  CHANNELS 3 Zrotation Xrotation Yrotation
                  End Site
                  {
                    OFFSET 2.33842 -0.294052 0.168128
                  }
                }
              }
              JOINT lPinky1
              {
                OFFSET 8.27202 -0.0477905 -0.4584
                CHANNELS 3 Zrotation Xrotation Yrotation
                JOINT lPinky2
                {
                  OFFSET 1.82734 -0.647385 -0.700984
                  CHANNELS 3 Zrotation Xrotation Yrotation
                  End Site
                  {
                    OFFSET 1.69225 -0.51767 -0.607171
                  }
                }
              }
            }
          }
        }
      }
    }
  }
  JOINT rButtock
  {
    OFFSET -8.77824 4.35084 1.2192
    CHANNELS 3 Zrotation Xrotation Yrotation
    JOINT rThigh
    {
      OFFSET 0 -1.70687 -2.19456
      CHANNELS 3 Zrotation Xrotation Yrotation
      JOINT rShin
      {
        OFFSET 0 -36.8199 0.73152
        CHANNELS 3 Zrotation Xrotation Yrotation
        JOINT rFoot
        {
          OFFSET 0.73152 -45.1104 -5.12064
          CHANNELS 3 Zrotation Xrotation Yrotation
          End Site
          {
            OFFSET -1.1221 -3.69964 12.103
          }
        }
      }
    }
  }
  JOINT lButtock
  {
    OFFSET 8.77824 4.35084 1.2192
    CHANNELS 3 Zrotation Xrotation Yrotation
    JOINT lThigh
    {
      OFFSET 0 -1.70687 -2.19456
      CHANNELS 3 Zrotation Xrotation Yrotation
      JOINT lShin
      {
        OFFSET 0 -36.8199 0.73152
        CHANNELS 3 Zrotation Xrotation Yrotation
        JOINT lFoot
        {
          OFFSET -0.73152 -45.1104 -5.12064
          CHANNELS 3 Zrotation Xrotation Yrotation
          End Site
          {
            OFFSET 1.1221 -3.69964 12.103
          }
        }
      }
    }
  }
}
MOTION
Frames:	6
Frame Time:	0.00833333
-1.12 90.183 54.7696 -7.3723 -3.3581 5.138 11.4623 13.3929 3.32687 -3.70381 -6.70276 1.06782 -0.507091 6.77959 -0.103423 1.13261 -36.7125 0.251108 -0.0 0.0 0.0 -0.0 0.0 0.0 1.04844e-13 1.43121e-14 -2.63887e-14 63.8333 45.069 11.2219 -26.457 -45.331 94.143 -0.0985032 -8.91605 -1.26339 5.84735e-10 1.47689e-09 2.87118e-10 1.01245e-09 2.56049e-09 4.97603e-10 5.84735e-10 1.47688e-09 2.87109e-10 7.73091 5.47488 0.417314 5.84732e-10 1.47689e-09 2.87115e-10 2.90554 0.965183 0.102902 5.84732e-10 1.47689e-09 2.87113e-10 10.2786 0.731801 0.0259123 5.84723e-10 1.47689e-09 2.87112e-10 2.22167 -0.733487 -0.20892 1.04533e-13 1.43107e-14 -2.66868e-14 -99.313 35.6234 32.7245 27.0245 -43.9493 -91.3436 1.40337 -31.5903 4.95817 -1.72652e-10 -1.53471e-10 -6.46352e-10 -2.7977e-10 -1.66935e-10 -1.12444e-09 -1.72656e-10 -1.53463e-10 -6.4634e-10 -7.73091 5.47488 -0.417314 -1.72651e-10 -1.53473e-10 -6.46346e-10 -2.90554 0.965183 -0.102902 -1.72655e-10 -1.53472e-10 -6.4635e-10 -10.2786 0.731801 -0.0259123 -1.72643e-10 -1.53474e-10 -6.46359e-10 -2.22167 -0.733487 0.20892 -2.03217e-16 0.0 -3.88251e-19 10.3591 21.6029 10.9677 0.0803581 4.67308 0.725695 3.03206 43.8519 -4.88675 2.03217e-16 0.0 3.88251e-19 12.9655 -53.5219 3.30144 0.962508 58.295 -1.43945 1.09807 11.4312 -6.8922
-1.13269 90.7408 57.5929 -7.3708 -2.9693 5.2755 10.9369 13.3156 3.3964 -3.80938 -6.52539 1.04791 -0.572062 6.45823 -0.137192 1.03906 -36.601 0.163027 -0.0 0.0 0.0 -0.0 0.0 0.0 1.51285e-13 -2.72336e-14 -2.86704e-14 63.5118 46.0291 11.0815 -26.5318 -45.1629 93.7978 -0.0936445 -8.69549 -1.23164 7.01121e-10 2.37671e-09 1.39448e-10 1.21469e-09 4.11995e-09 2.42422e-10 7.01125e-10 2.37671e-09 1.39438e-10 7.73091 5.47488 0.417314 7.01121e-10 2.37671e-09 1.39444e-10 2.90554 0.965183 0.102902 7.01122e-10 2.37671e-09 1.39442e-10 10.2786 0.731801 0.0259123 7.01112e-10 2.37671e-09 1.39443e-10 2.22167 -0.733487 -0.20892 1.50997e-13 -2.72353e-14 -2.89667e-14 -99.3482 34.8073 32.8473 26.9401 -44.1779 -91.793 1.38823 -31.4395 4.92899 1.28633e-10 1.20096e-09 -5.10757e-10 2.38529e-10 2.15106e-09 -8.83605e-10 1.28629e-10 1.20097e-09 -5.10744e-10 -7.73091 5.47488 -0.417314 1.28634e-10 1.20096e-09 -5.10752e-10 -2.90554 0.965183 -0.102902 1.2863e-10 1.20096e-09 -5.10754e-10 -10.2786 0.731801 -0.0259123 1.2864e-10 1.20095e-09 -5.10762e-10 -2.22167 -0.733487 0.20892 -2.03217e-16 0.0 -3.88251e-19 10.2351 21.9819 11.7071 0.0412369 5.26502 0.628382 2.43081 45.1693 -3.80592 2.03217e-16 0.0 3.88251e-19 11.7809 -52.2218 1.86309 0.710114 53.0823 -1.073 1.12862 11.5691 -6.39739
-1.12567 91.1844 60.2613 -7.4331 -2.7064 5.3148 10.2775 13.3507 3.45887 -3.86598 -6.35581 1.02934 -0.622239 6.21736 -0.164285 0.812489 -36.6458 0.0429156 -0.0 0.0 0.0 -0.0 0.0 0.0 2.32431e-13 -9.44225e-14 -3.88344e-14 63.1924 46.9669 10.9144 -26.6207 -44.9489 93.3733 -0.0889793 -8.4791 -1.20052 8.63156e-10 3.79158e-09 -1.3204e-10 1.49633e-09 6.57223e-09 -2.26601e-10 8.63164e-10 3.79158e-09 -1.3205e-10 7.73091 5.47488 0.417314 8.63158e-10 3.79157e-09 -1.32044e-10 2.90554 0.965183 0.102902 8.63163e-10 3.79157e-09 -1.32045e-10 10.2786 0.731801 0.0259123 8.63149e-10 3.79157e-09 -1.32042e-10 2.22167 -0.733487 -0.20892 2.32215e-13 -9.44243e-14 -3.91233e-14 -99.3592 34.0694 32.8225 26.8458 -44.423 -92.2798 1.37938 -31.3519 4.91203 6.80895e-10 3.74605e-09 -1.81234e-10 1.18605e-09 6.49814e-09 -3.01845e-10 6.80892e-10 3.74606e-09 -1.81221e-10 -7.73091 5.47488 -0.417314 6.80897e-10 3.74605e-09 -1.81231e-10 -2.90554 0.965183 -0.102902 6.80893e-10 3.74605e-09 -1.8123e-10 -10.2786 0.731801 -0.0259123 6.809e-10 3.74605e-09 -1.81237e-10 -2.22167 -0.733487 0.20892 -2.03217e-16 0.0 -3.88251e-19 10.3339 21.4328 12.4248 0.016395 7.80236 0.540385 1.12991 44.735 -1.88039 2.03217e-16 0.0 3.88251e-19 10.6535 -50.7068 0.561266 0.535476 47.7047 -0.753955 1.16446 12.0503 -5.87405
-1.13664 91.5324 62.8757 -7.4309 -2.7044 5.3662 9.59412 13.436 3.55747 -3.91428 -6.18071 1.02262 -0.632375 6.1429 -0.189973 0.542367 -36.9073 -0.0953722 -0.0 0.0 0.0 -0.0 0.0 0.0 3.05013e-13 -1.56542e-13 -4.34465e-14 63.0125 47.8358 10.6417 -26.7305 -44.6849 92.8404 -0.0846463 -8.27236 -1.17083 9.77681e-10 4.95354e-09 -3.89271e-10 1.69548e-09 8.5862e-09 -6.71011e-10 9.77693e-10 4.95354e-09 -3.89282e-10 7.73091 5.47488 0.417314 9.77685e-10 4.95352e-09 -3.89276e-10 2.90554 0.965183 0.102902 9.77693e-10 4.95352e-09 -3.89275e-10 10.2786 0.731801 0.0259123 9.77676e-10 4.95352e-09 -3.8927e-10 2.22167 -0.733487 -0.20892 3.04879e-13 -1.56544e-13 -4.37202e-14 -99.2766 33.4595 32.6527 26.7527 -44.6521 -92.7442 1.37357 -31.295 4.90097 1.18163e-09 6.05815e-09 1.58407e-10 2.04398e-09 1.04427e-08 2.96385e-10 1.18163e-09 6.05816e-09 1.5842e-10 -7.73091 5.47488 -0.417314 1.18163e-09 6.05815e-09 1.58408e-10 -2.90554 0.965183 -0.102902 1.18163e-09 6.05815e-09 1.58412e-10 -10.2786 0.731801 -0.0259123 1.18163e-09 6.05815e-09 1.58406e-10 -2.22167 -0.733487 0.20892 -2.03217e-16 0.0 -3.88251e-19 10.5899 20.3764 13.0306 -0.00218831 11.3672 0.464972 -0.130144 43.5299 -0.00184327 2.03217e-16 0.0 3.88251e-19 9.73493 -49.1414 -0.501071 0.428581 42.6332 -0.482308 1.15917 12.4952 -5.27881
-1.20517 91.7424 65.5197 -7.5198 -2.8642 5.4501 8.99697 13.5092 3.73537 -3.99513 -5.98681 1.03823 -0.57713 6.32075 -0.219535 0.317172 -37.4458 -0.238588 -0.0 0.0 0.0 -0.0 0.0 0.0 3.25763e-13 -1.82881e-13 -2.90723e-14 63.1144 48.588 10.18 -26.8661 -44.3649 92.1727 -0.0807625 -8.08075 -1.14334 9.51536e-10 5.09464e-09 -4.94172e-10 1.65025e-09 8.83073e-09 -8.52351e-10 9.5155e-10 5.09465e-09 -4.94185e-10 7.73091 5.47488 0.417314 9.51541e-10 5.09463e-09 -4.94179e-10 2.90554 0.965183 0.102902 9.51551e-10 5.09463e-09 -4.94176e-10 10.2786 0.731801 0.0259123 9.51533e-10 5.09463e-09 -4.94169e-10 2.22167 -0.733487 -0.20892 3.25676e-13 -1.82883e-13 -2.93207e-14 -99.0286 33.0271 32.3382 26.6743 -44.8346 -93.1229 1.36763 -31.2362 4.88959 1.32833e-09 6.71359e-09 3.24356e-10 2.29348e-09 1.15532e-08 5.86632e-10 1.32832e-09 6.7136e-09 3.24369e-10 -7.73091 5.47488 -0.417314 1.32833e-09 6.71359e-09 3.24356e-10 -2.90554 0.965183 -0.102902 1.32832e-09 6.71359e-09 3.24361e-10 -10.2786 0.731801 -0.0259123 1.32833e-09 6.71359e-09 3.24356e-10 -2.22167 -0.733487 0.20892 -2.03217e-16 0.0 -3.88251e-19 10.9072 19.2296 13.4447 -0.0296019 15.0415 0.404612 -0.823062 42.5859 1.08872 2.03217e-16 0.0 3.88251e-19 9.13942 -47.6932 -1.24952 0.367596 38.3387 -0.25074 1.08099 12.5224 -4.57038
-1.32679 91.8646 68.1721 -7.7984 -3.1073 5.513 8.55417 13.5469 4.0818 -4.13102 -5.75036 1.10369 -0.410977 6.91904 -0.264519 0.102747 -38.5233 -0.431991 -0.0 0.0 0.0 -0.0 0.0 0.0 2.64845e-13 -1.54194e-13 2.12102e-14 63.5532 49.2253 9.50778 -27.0175 -43.9745 91.3869 -0.076952 -7.88932 -1.1159 6.87878e-10 3.58814e-09 -3.65262e-10 1.19244e-09 6.21892e-09 -6.29913e-10 6.8789e-10 3.58815e-09 -3.65277e-10 7.73091 5.47488 0.417314 6.87882e-10 3.58813e-09 -3.6527e-10 2.90554 0.965183 0.102902 6.87891e-10 3.58813e-09 -3.65266e-10 10.2786 0.731801 0.0259123 6.87873e-10 3.58813e-09 -3.65259e-10 2.22167 -0.733487 -0.20892 2.64753e-13 -1.54196e-13 2.10091e-14 -98.5793 32.8088 31.8767 26.615 -44.9698 -93.4045 1.35869 -31.1464 4.8723 9.06524e-10 4.68599e-09 2.32236e-10 1.56544e-09 8.07024e-09 4.18358e-10 9.06521e-10 4.686e-09 2.32246e-10 -7.73091 5.47488 -0.417314 9.06527e-10 4.68599e-09 2.32235e-10 -2.90554 0.965183 -0.102902 9.06522e-10 4.68599e-09 2.32239e-10 -10.2786 0.731801 -0.0259123 9.06525e-10 4.68599e-09 2.32234e-10 -2.22167 -0.733487 0.20892 -2.03217e-16 0.0 -3.88251e-19 11.3301 18.0061 13.7077 -0.0706162 18.7944 0.362421 -0.922425 41.9442 1.32345 2.03217e-16 0.0 3.88251e-19 8.98707 -46.3917 -1.6882 0.321896 34.9079 -0.0339259 0.915971 11.8697 -3.6625
